<?xml version="1.0" encoding="UTF-8" standalone="no"?>
<!-- Created with Inkscape (http://www.inkscape.org/) -->

<svg
   xmlns:dc="http://purl.org/dc/elements/1.1/"
   xmlns:cc="http://creativecommons.org/ns#"
   xmlns:rdf="http://www.w3.org/1999/02/22-rdf-syntax-ns#"
   xmlns:svg="http://www.w3.org/2000/svg"
   xmlns="http://www.w3.org/2000/svg"
   xmlns:sodipodi="http://sodipodi.sourceforge.net/DTD/sodipodi-0.dtd"
   xmlns:inkscape="http://www.inkscape.org/namespaces/inkscape"
   width="1500"
   height="1500"
   viewBox="0 0 1500 1500"
   id="svg4235"
   version="1.1"
   inkscape:version="0.91 r13725"
   sodipodi:docname="Logo102.svg">
  <defs
     id="defs4237" />
  <sodipodi:namedview
     id="base"
     pagecolor="#ffffff"
     bordercolor="#666666"
     borderopacity="1.0"
     inkscape:pageopacity="0.0"
     inkscape:pageshadow="2"
     inkscape:zoom="0.175"
     inkscape:cx="584.52139"
     inkscape:cy="283.58279"
     inkscape:document-units="px"
     inkscape:current-layer="layer2"
     showgrid="false"
     units="px"
     inkscape:window-width="1315"
     inkscape:window-height="744"
     inkscape:window-x="51"
     inkscape:window-y="24"
     inkscape:window-maximized="1" />
  <metadata
     id="metadata4240">
    <rdf:RDF>
      <cc:Work
         rdf:about="">
        <dc:format>image/svg+xml</dc:format>
        <dc:type
           rdf:resource="http://purl.org/dc/dcmitype/StillImage" />
        <dc:title></dc:title>
      </cc:Work>
    </rdf:RDF>
  </metadata>
  <g
     inkscape:groupmode="layer"
     id="layer2"
     inkscape:label="Layer 2"
     transform="translate(0,1000)">
    <rect
       style="fill:#fbc9a8;fill-opacity:1"
       id="rect4544"
       width="2000.7401"
       height="2006.3918"
       x="-1.4285715"
       y="-1502.1061"
       ry="8.5430803" />
  </g>
  <g
     inkscape:label="Layer 1"
     inkscape:groupmode="layer"
     id="layer1"
     transform="translate(0,447.63784)"
     style="display:inline"
     sodipodi:insensitive="true">
    <path
       style="display:inline"
       d="M 121.39597,905.12162 A 64.442842,61.953041 0 0 1 50.632477,920.37212 64.442842,61.953041 0 0 1 9.918038,862.6786 64.442842,61.953041 0 0 1 50.8126,805.10294 a 64.442842,61.953041 0 0 1 70.7155,15.45483 l -47.167302,42.2139 z"
       id="path6639"
       inkscape:connector-curvature="0" />
    <path
       d="M 121.37668,893.7199 A 53.175982,51.457219 0 0 1 62.380957,911.28671 53.175982,51.457219 0 0 1 25.970921,863.05444 53.175982,51.457219 0 0 1 61.205759,814.01167 53.175982,51.457219 0 0 1 120.60975,830.23902"
       id="path6641"
       style="display:inline;fill:#ffffff"
       inkscape:connector-curvature="0" />
    <text
       transform="scale(1.0343177,0.96682093)"
       id="text6653"
       y="899.93005"
       x="26.530121"
       style="font-style:normal;font-variant:normal;font-weight:normal;font-stretch:normal;font-size:128.70892334px;line-height:125%;font-family:'Gill Sans MT';-inkscape-font-specification:'Gill Sans MT';letter-spacing:0px;word-spacing:0px;display:inline;fill:#000000;fill-opacity:1;stroke:none;stroke-width:1px;stroke-linecap:butt;stroke-linejoin:miter;stroke-opacity:1"
       xml:space="preserve"
       sodipodi:linespacing="125%"><tspan
         y="899.93005"
         x="26.530121"
         id="tspan6655" /><tspan
         id="tspan6665"
         y="1060.8162"
         x="26.530121">N</tspan></text>
    <text
       transform="scale(1.0343177,0.96682093)"
       id="text6667"
       y="1038.1543"
       x="92.063759"
       style="font-style:normal;font-variant:normal;font-weight:normal;font-stretch:normal;font-size:101.1284256px;line-height:125%;font-family:'Gill Sans MT';-inkscape-font-specification:'Gill Sans MT';letter-spacing:0px;word-spacing:0px;display:inline;fill:#000000;fill-opacity:1;stroke:none;stroke-width:1px;stroke-linecap:butt;stroke-linejoin:miter;stroke-opacity:1"
       xml:space="preserve"
       sodipodi:linespacing="125%"><tspan
         y="1038.1543"
         x="92.063759"
         id="tspan6669"> ilsson</tspan></text>
    <rect
       ry="0"
       y="910.78833"
       x="101.57397"
       height="39.275059"
       width="12.403143"
       id="rect6675"
       style="display:inline;fill:#000000" />
    <rect
       ry="0.2299923"
       y="913.70874"
       x="101.12305"
       height="37.710552"
       width="9.2693405"
       id="rect6677"
       style="display:inline;fill:#000000" />
    <text
       transform="scale(1.0343177,0.96682093)"
       id="text6681"
       y="1014.0695"
       x="219.42422"
       style="font-style:normal;font-variant:normal;font-weight:bold;font-stretch:normal;font-size:147.09588623px;line-height:125%;font-family:Garamond;-inkscape-font-specification:'Garamond Bold';letter-spacing:0px;word-spacing:0px;display:inline;fill:#000000;fill-opacity:1;stroke:none;stroke-width:1px;stroke-linecap:butt;stroke-linejoin:miter;stroke-opacity:1"
       xml:space="preserve"
       sodipodi:linespacing="125%"><tspan
         y="1014.0695"
         x="219.42422"
         id="tspan6683">*</tspan></text>
    <text
       transform="scale(1.0343177,0.96682093)"
       id="text6707"
       y="1070.667"
       x="122.42094"
       style="font-style:normal;font-variant:normal;font-weight:normal;font-stretch:normal;font-size:33.19379044px;line-height:125%;font-family:'Copperplate Gothic Light';-inkscape-font-specification:'Copperplate Gothic Light, ';letter-spacing:1.03638387px;word-spacing:0px;display:inline;fill:#000000;fill-opacity:1;stroke:none;stroke-width:1px;stroke-linecap:butt;stroke-linejoin:miter;stroke-opacity:1"
       xml:space="preserve"
       sodipodi:linespacing="125%"><tspan
         y="1070.667"
         x="122.42094"
         id="tspan6709">metal   arts</tspan></text>
    <path
       id="path6727-1-2"
       d="m 143.29598,927.56995 -7.36025,6.99567 7.34055,6.92441 7.15512,-6.95196 z"
       style="display:inline;fill:none;fill-rule:evenodd;stroke:#000000;stroke-width:5.17700291px;stroke-linecap:butt;stroke-linejoin:miter;stroke-opacity:1"
       inkscape:connector-curvature="0" />
    <rect
       ry="0"
       y="939.94757"
       x="46.087357"
       height="66.291008"
       width="10.935342"
       id="rect6797"
       style="display:inline;fill:#000000" />
    <rect
       y="930.33075"
       x="139.31853"
       height="9.6750469"
       width="6.775157"
       id="rect6815"
       style="display:inline;fill:#000000" />
    <rect
       y="1021.6968"
       x="245.03214"
       height="5.4441829"
       width="6.4780011"
       id="rect6817-7"
       style="display:inline;fill:#000000" />
    <path
       id="path6727-1-8"
       d="m 248.91242,1020.1114 -5.36752,4.8403 5.35303,4.7911 5.21799,-4.8102 z"
       style="display:inline;fill:none;fill-rule:evenodd;stroke:#000000;stroke-width:3.67739725px;stroke-linecap:butt;stroke-linejoin:miter;stroke-opacity:1"
       inkscape:connector-curvature="0" />
    <path
       id="path6727-1-2-3"
       d="m 155.36901,856.85008 -7.3602,6.99569 7.34053,6.92439 7.15513,-6.95197 z"
       style="display:inline;fill:none;fill-rule:evenodd;stroke:#000000;stroke-width:5.17700291px;stroke-linecap:butt;stroke-linejoin:miter;stroke-opacity:1"
       inkscape:connector-curvature="0" />
    <rect
       y="859.83673"
       x="151.90289"
       height="9.6750469"
       width="6.775157"
       id="rect6815-1"
       style="display:inline;fill:#000000" />
    <rect
       ry="2.1332312"
       y="1005.9247"
       x="26.396019"
       height="26.936108"
       width="42.264355"
       id="rect6673"
       style="display:inline;fill:#ffffff" />
    <path
       style="fill:#ffe6d5;fill-opacity:1"
       d="m 63.316111,910.78424 c -22.493955,-7.336 -36.134674,-25.84408 -36.170118,-49.07657 -0.01426,-9.34297 0.60096,-12.07609 4.501929,-20.00008 9.145661,-18.57748 26.290281,-29.43574 46.788493,-29.63273 13.444975,-0.12921 22.864235,3.0114 33.890275,11.29982 l 8.44782,6.35036 0,32.92502 0,32.92503 -6.91634,5.07707 c -11.45082,8.40566 -19.138473,11.15001 -32.59922,11.63733 -7.502884,0.27162 -14.223208,-0.29214 -17.942839,-1.50525 z"
       id="path4570"
       inkscape:connector-curvature="0" />
    <path
       style="fill:#ffe6d5;fill-opacity:1"
       d="m 26.817282,1030.8199 c -0.398646,-1.0389 -0.537483,-6.9133 -0.308526,-13.0543 l 0.416288,-11.1654 20.816236,-0.3906 20.816239,-0.3905 0,13.4448 0,13.4448 -20.507714,0 c -15.826621,0 -20.673156,-0.4311 -21.232523,-1.8888 z"
       id="path4572"
       inkscape:connector-curvature="0" />
    <path
       style="fill:#000000;fill-opacity:1"
       d="m -2.4734627,1048.7005 c -1.123819,-2.9558 -1.5467761,-345.88392 -0.9399066,-762.06246 l 1.1034014,-756.68807 759.9126679,-1.08675 759.9128,-1.08675 0,763.14911 0,763.14912 -758.9729,0 c -603.22219,0 -759.39206681,-1.1029 -761.0160627,-5.3742 z M 511.46408,867.57872 c 0,-11.7144 2.50386,-20.8987 6.63125,-24.32411 9.30963,-7.72638 14.08258,-1.14348 15.669,21.61097 0.99812,14.31648 3.2919,19.67904 8.87015,20.73717 6.3472,1.20394 7.5239,-1.91206 7.5239,-19.92493 0,-15.55195 1.85719,-22.06481 6.83702,-23.97578 11.26897,-4.32418 14.65978,1.10081 14.65978,23.45437 0,16.01645 1.58673,21.24307 6.44905,21.24307 4.92192,0 6.43344,-5.34497 6.38324,-22.57168 -0.0344,-12.41431 -1.48725,-24.77537 -3.22452,-27.46866 -1.9588,-3.03707 -18.26596,-5.03251 -42.92784,-5.2533 l -39.76911,-0.35593 0,27.82479 c 0,21.86683 1.38087,27.82468 6.44906,27.82468 4.75032,0 6.44902,-4.95742 6.44902,-18.82066 z m 141.87904,12.03001 c 0,-5.32867 -2.81456,-6.17242 -13.07421,-3.91895 -7.99328,1.75557 -15.51196,0.84829 -19.34713,-2.33448 -11.06153,-9.18036 -6.79749,-12.75197 15.22386,-12.75197 23.38484,0 26.32936,-4.08542 14.80399,-20.54019 -4.66605,-6.66183 -11.08289,-9.55546 -21.18973,-9.55546 -19.09119,0 -28.00917,9.61206 -28.00917,30.18911 0,19.89598 7.15182,25.38469 33.32008,25.5719 13.83954,0.0988 18.27231,-1.51661 18.27231,-6.65996 z m 51.59236,2.95735 c 0,-2.10826 -4.83678,-5.04723 -10.74838,-6.53083 -9.21327,-2.31246 -10.74843,-5.14226 -10.74843,-19.81321 0,-15.39042 1.08341,-17.11557 10.74843,-17.11557 5.9116,0 10.74838,-1.93479 10.74838,-4.29939 0,-2.36462 -4.83678,-4.2994 -10.74838,-4.2994 -7.88217,0 -10.74843,-2.293 -10.74843,-8.59869 0,-11.97756 -12.76281,-10.95787 -13.45294,1.07483 -1.29948,22.65753 1.74657,53.06357 5.81457,58.04135 4.99215,6.10881 29.13518,7.38585 29.13518,1.54091 z m 60.1912,-16.36191 c 0,-28.87067 -5.37278,-35.69649 -28.09719,-35.69649 -14.30379,0 -19.19591,1.66439 -19.19591,6.53103 0,4.77892 2.81782,5.82371 10.50404,3.89456 19.01666,-4.77279 23.32115,3.88794 4.54373,9.14202 -12.66169,3.54297 -17.57059,7.34921 -18.61229,14.43178 -2.70519,18.39302 1.74169,21.89369 27.06954,21.30975 l 23.78808,-0.54837 0,-19.06428 z m 30.09549,-18.49902 c 0,-31.52868 -1.19432,-38.69414 -6.4491,-38.69414 -5.25471,0 -6.44903,7.16546 -6.44903,38.69414 0,31.52868 1.19432,38.69433 6.44903,38.69433 5.25478,0 6.4491,-7.16565 6.4491,-38.69433 z m 179.17118,16.74235 c -1.42994,-12.07358 -4.83852,-24.64932 -7.57439,-27.946 -7.17891,-8.64996 -42.61589,-8.10949 -42.61589,0.65012 0,5.2216 3.11576,6.05942 14.55544,3.91323 8.04418,-1.50909 15.7204,-0.84554 17.15982,1.48332 1.43239,2.31788 -4.12659,5.47686 -12.35349,7.02034 -17.80637,3.34034 -26.16248,15.52488 -19.36177,28.23219 3.76147,7.02844 9.00211,8.59878 28.69598,8.59878 l 24.09417,0 -2.59987,-21.95198 z m 31.49765,3.13122 c 0,-18.9984 8.2639,-31.84383 17.0092,-26.43898 2.4682,1.52539 4.4876,-0.24283 4.4876,-3.92913 0,-4.95377 -4.4877,-6.70293 -17.1974,-6.70293 l -17.1975,0 0,27.946 c 0,21.97441 1.37803,27.9458 6.4491,27.9458 4.7504,0 6.449,-4.95752 6.449,-18.82076 z m 64.4905,15.02282 c 0,-2.08878 -3.8694,-4.80984 -8.5987,-6.04657 -6.8322,-1.78659 -8.5988,-5.86431 -8.5988,-19.84857 0,-14.73367 1.4003,-17.59993 8.5988,-17.59993 4.7293,0 8.5987,-1.93479 8.5987,-4.29939 0,-2.36462 -3.8694,-4.2994 -8.5987,-4.2994 -5.7325,0 -8.5988,-2.86626 -8.5988,-8.59869 0,-4.77713 -2.8663,-8.59878 -6.4491,-8.59878 -3.547,0 -6.449,3.70834 -6.449,8.24058 0,4.53213 -2.4183,9.36893 -5.3742,10.74832 -4.2994,2.00631 -4.2994,3.00961 0,5.01591 3.1931,1.49003 5.3742,10.79615 5.3742,22.93 0,11.23201 1.2898,21.71173 2.8663,23.2883 4.2584,4.2583 27.2293,3.47223 27.2293,-0.93178 z m 51.4209,-2.44453 c 8.5659,-10.32126 3.2526,-21.36734 -12.779,-26.56701 -17.1444,-5.56052 -16.4622,-12.6431 1.1272,-11.69996 7.5602,0.40552 11.8233,-1.53242 11.8233,-5.37412 0,-8.23366 -31.6551,-8.04082 -38.523,0.23472 -7.8595,9.46991 -1.5315,22.2123 13.1522,26.48462 16.9384,4.92809 14.4664,12.69665 -3.65,11.46959 -9.8569,-0.66751 -13.9729,0.91558 -13.9729,5.37432 0,8.64402 35.6591,8.70893 42.8222,0.078 z m -243.52945,-14.43315 11.57034,-12.07686 -12.51757,-11.99258 -12.51764,-11.99278 -13.29606,9.83039 c -7.313,5.40662 -13.29622,11.8121 -13.29622,14.23441 0,4.23844 21.10203,23.60254 26.06661,23.91975 1.33109,0.0849 7.62683,-5.28007 13.99054,-11.92233 z m -422.70061,-182.23414 0,-172.81403 10.83734,-11.31172 10.83725,-11.31173 -8.90551,-8.0595 c -8.54319,-7.73151 -9.37783,-7.75146 -20.51089,-0.49048 -53.50198,34.89402 -125.07124,42.00672 -173.86869,17.27907 -27.92011,-14.14816 -58.86752,-45.39894 -71.85915,-72.56362 -7.76915,-16.24465 -10.74154,-31.03019 -12.16604,-60.5173 -1.70876,-35.37087 -0.82962,-41.25148 9.39936,-62.87391 15.89855,-33.6066 40.50478,-59.73449 72.13355,-76.59381 22.9318,-12.22355 32.7007,-14.77596 62.55127,-16.34354 43.53354,-2.28607 69.59792,3.79913 98.91373,23.09309 26.15137,17.2114 27.51072,17.4562 37.23859,6.70708 6.99921,-7.73399 6.58705,-8.72602 -9.00719,-21.67952 -105.05697,-87.26647 -267.32841,-45.60858 -316.98966,81.37677 -18.3191,46.84245 -11.72439,112.26294 15.97496,158.47362 45.68551,76.21704 151.27928,114.50307 234.15514,84.8998 l 18.2723,-6.52699 -0.2528,134.16444 c -0.17155,90.97471 -1.63716,132.08839 -4.55316,127.7154 -2.36514,-3.54702 -31.40157,-54.33322 -64.52533,-112.85834 l -60.22501,-106.4092 -27.65818,0 -27.65816,0 0,109.63377 0,109.63377 25.69223,0 25.69222,0 1.1788,-70.73247 1.17879,-70.73248 57.16643,100.82803 57.16641,100.82792 29.89571,0 29.89571,0 0,-172.81412 z M 784.13493,791.3841 c 25.41501,-7.05629 41.18274,-24.99912 41.18274,-46.86368 0,-26.19072 -15.06109,-39.47319 -55.91501,-49.31177 -41.52253,-9.99941 -47.26972,-13.19682 -47.26972,-26.29781 0,-16.84864 24.94196,-25.72236 55.89172,-19.88482 13.00555,2.45283 27.03225,5.80256 31.1704,7.44344 6.30966,2.50223 7.52393,0.53001 7.52393,-12.21929 0,-15.0342 -0.2727,-15.25953 -24.54836,-20.29925 -41.98643,-8.71625 -84.94616,1.34017 -96.29269,22.54146 -2.7572,5.15193 -5.0131,16.91602 -5.0131,26.14261 0,24.51762 13.65606,36.06082 55.26619,46.71531 38.6204,9.88886 44.79176,13.65302 44.79176,27.31977 0,26.03217 -45.80309,29.77093 -97.81055,7.98382 -3.77983,-1.58338 -5.3742,2.85984 -5.3742,14.9766 l 0,17.2278 22.57164,4.11644 c 31.51385,5.74754 54.14713,5.87289 73.82525,0.40937 l 0,0 z m 180.69691,-6.20581 c 21.79031,-10.34004 31.0558,-31.23973 24.11702,-54.3991 -5.76349,-19.23698 -18.40284,-26.9925 -62.53001,-38.36933 -34.24052,-8.82778 -44.15783,-17.66662 -35.11053,-31.29278 10.74917,-16.18902 50.33446,-18.31466 85.56196,-4.59427 6.16869,2.40245 7.52394,0.55154 7.52394,-10.27651 0,-16.26826 -7.22241,-20.55254 -41.11049,-24.38655 -46.56459,-5.2681 -80.67293,10.40367 -86.1469,39.58236 -5.69866,30.3766 10.66699,48.1757 52.65437,57.26605 30.21071,6.54072 43.89652,12.81519 46.61161,21.36973 8.83116,27.82449 -39.57421,38.58684 -86.1063,19.14449 l -14.88327,-6.21866 0,16.79017 c 0,16.53114 0.31513,16.85941 20.42192,21.29909 27.95234,6.17164 69.32039,3.42234 88.99668,-5.91469 z m 184.06866,-1.33365 c 23.0466,-14.24349 35.1035,-40.32199 35.1424,-76.01047 0.055,-50.56718 -24.2702,-80.59753 -70.2845,-86.76936 -33.9101,-4.54835 -72.8047,15.93118 -84.8054,44.65337 -7.5771,18.13459 -7.5455,66.55093 0.055,84.31456 7.4312,17.36778 27.6987,36.66729 43.9716,41.87139 19.3916,6.20138 59.7844,1.91345 75.9208,-8.05949 z m -590.14341,-75.8688 0,-83.83772 -17.19745,0 -17.19744,0 0,83.83772 0,83.8376 17.19744,0 17.19745,0 0,-83.8376 z m 85.98731,-32.2452 0,-116.0829 -15.04777,0 -15.04779,0 0,116.0829 0,116.0828 15.04779,0 15.04777,0 0,-116.0828 z m 614.8091,65.13202 c 0,-56.24685 4.1437,-74.1221 19.5177,-84.19562 15.3572,-10.06243 46.0682,-8.79853 56.1297,2.30989 7.0866,7.82398 8.3895,17.38339 9.6682,70.93953 l 1.4779,61.89698 14.6448,0 14.6446,0 0,-62.47895 c 0,-86.77292 -7.9644,-102.5995 -54.2732,-107.84944 -17.1847,-1.94832 -24.6486,-0.39427 -41.3877,8.61587 -19.79,10.65271 -20.422,10.72246 -20.422,2.25556 0,-7.46736 -2.3432,-8.54337 -16.1225,-7.40295 l -16.1227,1.33444 -1.1779,77.24394 c -0.6478,42.48428 -0.2248,79.7275 0.94,82.76279 1.1705,3.0505 8.9083,5.51874 17.3004,5.51874 l 15.1827,0 0,-50.95078 z M 560.04478,594.92545 575.97558,578.61086 559.05673,562.09 l -16.91887,-16.52077 -17.48659,13.8496 c -9.6176,7.61723 -17.48655,15.90038 -17.48655,18.40675 0,4.34761 29.68222,32.86154 34.59721,33.23556 1.2936,0.0988 9.52086,-7.16249 18.28285,-16.13569 z M 938.7738,573.62074 c -1.10296,-13.59682 -2.78328,-31.05262 -3.73402,-38.79066 -1.97022,-16.036 -4.77093,-16.94882 40.03046,13.04686 17.33597,11.60691 31.92456,20.45464 32.41916,19.66165 0.4945,-0.79297 6.2543,-8.71594 12.7996,-17.60674 l 11.9004,-16.16484 -39.73021,-18.38659 -39.73032,-18.38659 39.39516,-16.51979 39.39487,-16.52016 -6.6825,-11.26926 c -17.7238,-29.88957 -14.9514,-29.72399 -52.66656,-3.14553 -18.82554,13.26676 -35.11642,24.12149 -36.20195,24.12149 -1.08552,0 -1.36312,-4.35324 -0.61688,-9.67361 0.74616,-5.32058 2.18979,-22.73291 3.20804,-38.69433 l 1.85126,-29.02083 -22.87224,0 -22.87218,0 2.5615,39.53641 2.56141,39.53641 -35.43636,-24.83099 c -38.99112,-27.32175 -36.12359,-27.43763 -53.68088,2.17098 l -6.68244,11.26926 38.61016,16.191 c 21.23566,8.90493 38.61016,16.58696 38.61016,17.07112 0,0.48426 -16.92872,8.30954 -37.61943,17.38962 -20.69072,9.07999 -38.24809,16.94734 -39.01634,17.48307 -1.80196,1.25629 21.24368,36.15773 23.87521,36.15773 1.09355,0 17.57411,-10.73609 36.62334,-23.85812 l 34.63493,-23.85831 -2.52059,38.90604 -2.52067,38.90604 23.05673,0 23.05665,0 -2.00547,-24.72133 z M 598.35544,380.3413 l 16.31441,-15.93059 -15.9308,-16.3145 c -8.76201,-8.9732 -17.87505,-16.31479 -20.25127,-16.31479 -2.37617,0 -11.66186,7.16881 -20.63475,15.9306 l -16.3144,15.9305 15.9308,16.31479 c 8.76199,8.973 17.87505,16.3145 20.25127,16.3145 2.37616,0 11.66183,-7.16862 20.63474,-15.93051 z"
       id="path4574"
       inkscape:connector-curvature="0" />
    <path
       style="fill:#000000;fill-opacity:1"
       d="m 1073.0755,759.12203 c -19.1705,-11.68998 -27.6798,-31.81786 -25.43,-60.15328 0.7332,-9.23603 3.4075,-20.80436 5.943,-25.70738 14.8281,-28.67434 66.1574,-34.35389 88.3804,-9.77923 8.6396,9.55384 13.3009,25.25713 13.3009,44.80869 0,37.18692 -18.6467,56.09446 -55.3004,56.07365 -13.033,-0.008 -20.7879,-1.51902 -26.8939,-5.24245 z"
       id="path4576"
       inkscape:connector-curvature="0" />
  </g>
</svg>
