<?xml version="1.0" encoding="UTF-8" standalone="no"?>
<!-- Created with Inkscape (http://www.inkscape.org/) -->

<svg
   xmlns:dc="http://purl.org/dc/elements/1.1/"
   xmlns:cc="http://creativecommons.org/ns#"
   xmlns:rdf="http://www.w3.org/1999/02/22-rdf-syntax-ns#"
   xmlns:svg="http://www.w3.org/2000/svg"
   xmlns="http://www.w3.org/2000/svg"
   xmlns:sodipodi="http://sodipodi.sourceforge.net/DTD/sodipodi-0.dtd"
   xmlns:inkscape="http://www.inkscape.org/namespaces/inkscape"
   width="500"
   height="500"
   viewBox="0 0 500.00001 500.00001"
   id="svg4235"
   version="1.1"
   inkscape:version="0.91 r13725"
   sodipodi:docname="Logo100.svg">
  <defs
     id="defs4237" />
  <sodipodi:namedview
     id="base"
     pagecolor="#ffffff"
     bordercolor="#666666"
     borderopacity="1.0"
     inkscape:pageopacity="0.0"
     inkscape:pageshadow="2"
     inkscape:zoom="0.7"
     inkscape:cx="86.757414"
     inkscape:cy="299.05825"
     inkscape:document-units="px"
     inkscape:current-layer="layer1"
     showgrid="false"
     units="px"
     inkscape:window-width="1315"
     inkscape:window-height="744"
     inkscape:window-x="51"
     inkscape:window-y="24"
     inkscape:window-maximized="1" />
  <metadata
     id="metadata4240">
    <rdf:RDF>
      <cc:Work
         rdf:about="">
        <dc:format>image/svg+xml</dc:format>
        <dc:type
           rdf:resource="http://purl.org/dc/dcmitype/StillImage" />
        <dc:title></dc:title>
      </cc:Work>
    </rdf:RDF>
  </metadata>
  <g
     inkscape:groupmode="layer"
     id="layer2"
     inkscape:label="Layer 2"
     sodipodi:insensitive="true">
    <rect
       style="fill:#ffe6d5;fill-opacity:1"
       id="rect4544"
       width="505.71429"
       height="507.14285"
       x="-1.4285715"
       y="-2.8571432"
       ry="2.15938" />
  </g>
  <g
     inkscape:label="Layer 1"
     inkscape:groupmode="layer"
     id="layer1"
     transform="translate(0,-552.36216)"
     style="display:inline">
    <path
       style="display:inline"
       d="m 157.10077,869.00985 a 65.232866,62.712542 0 0 1 -71.631,15.43746 65.232866,62.712542 0 0 1 -41.21357,-58.4008 65.232866,62.712542 0 0 1 41.3959,-58.2815 65.232866,62.712542 0 0 1 71.58243,15.6443 l -47.74555,42.73141 z"
       id="path6639"
       inkscape:connector-curvature="0" />
    <path
       d="m 157.08124,857.46835 a 53.827882,52.088048 0 0 1 -59.71896,17.78217 53.827882,52.088048 0 0 1 -36.8564,-48.82357 53.827882,52.088048 0 0 1 35.66679,-49.644 53.827882,52.088048 0 0 1 60.13225,16.42629"
       id="path6641"
       style="display:inline;fill:#ffffff"
       inkscape:connector-curvature="0" />
    <text
       transform="scale(1.0343177,0.96682093)"
       id="text6653"
       y="862.13458"
       x="59.936661"
       style="font-style:normal;font-variant:normal;font-weight:normal;font-stretch:normal;font-size:130.2868042px;line-height:125%;font-family:'Gill Sans MT';-inkscape-font-specification:'Gill Sans MT';letter-spacing:0px;word-spacing:0px;display:inline;fill:#000000;fill-opacity:1;stroke:none;stroke-width:1px;stroke-linecap:butt;stroke-linejoin:miter;stroke-opacity:1"
       xml:space="preserve"
       sodipodi:linespacing="125%"><tspan
         y="862.13458"
         x="59.936661"
         id="tspan6655" /><tspan
         id="tspan6665"
         y="1024.993"
         x="59.936661">N</tspan></text>
    <text
       transform="scale(1.0343177,0.96682093)"
       id="text6667"
       y="1002.0533"
       x="126.2737"
       style="font-style:normal;font-variant:normal;font-weight:normal;font-stretch:normal;font-size:102.36819458px;line-height:125%;font-family:'Gill Sans MT';-inkscape-font-specification:'Gill Sans MT';letter-spacing:0px;word-spacing:0px;display:inline;fill:#000000;fill-opacity:1;stroke:none;stroke-width:1px;stroke-linecap:butt;stroke-linejoin:miter;stroke-opacity:1"
       xml:space="preserve"
       sodipodi:linespacing="125%"><tspan
         y="1002.0533"
         x="126.2737"
         id="tspan6669"> ilsson</tspan></text>
    <rect
       ry="0"
       y="874.74603"
       x="137.03577"
       height="39.756542"
       width="12.555198"
       id="rect6675"
       style="display:inline;fill:#000000" />
    <rect
       ry="0.23281185"
       y="877.70227"
       x="136.57932"
       height="38.172859"
       width="9.3829765"
       id="rect6677"
       style="display:inline;fill:#000000" />
    <text
       transform="scale(1.0343177,0.96682093)"
       id="text6681"
       y="977.67328"
       x="255.19551"
       style="font-style:normal;font-variant:normal;font-weight:bold;font-stretch:normal;font-size:148.89918518px;line-height:125%;font-family:Garamond;-inkscape-font-specification:'Garamond Bold';letter-spacing:0px;word-spacing:0px;display:inline;fill:#000000;fill-opacity:1;stroke:none;stroke-width:1px;stroke-linecap:butt;stroke-linejoin:miter;stroke-opacity:1"
       xml:space="preserve"
       sodipodi:linespacing="125%"><tspan
         y="977.67328"
         x="255.19551"
         id="tspan6683">*</tspan></text>
    <text
       transform="scale(1.0343177,0.96682093)"
       id="text6707"
       y="1034.9646"
       x="157.00305"
       style="font-style:normal;font-variant:normal;font-weight:normal;font-stretch:normal;font-size:33.60072327px;line-height:125%;font-family:'Copperplate Gothic Light';-inkscape-font-specification:'Copperplate Gothic Light, ';letter-spacing:1.04908919px;word-spacing:0px;display:inline;fill:#000000;fill-opacity:1;stroke:none;stroke-width:1px;stroke-linecap:butt;stroke-linejoin:miter;stroke-opacity:1"
       xml:space="preserve"
       sodipodi:linespacing="125%"><tspan
         y="1034.9646"
         x="157.00305"
         id="tspan6709">metal   arts</tspan></text>
    <path
       id="path6727-1-2"
       d="m 179.26926,891.73337 -7.45047,7.08145 7.43053,7.00928 7.24284,-7.03718 z"
       style="display:inline;fill:none;fill-rule:evenodd;stroke:#000000;stroke-width:5.24046993px;stroke-linecap:butt;stroke-linejoin:miter;stroke-opacity:1"
       inkscape:connector-curvature="0" />
    <rect
       ry="0"
       y="904.26276"
       x="80.868927"
       height="67.103691"
       width="11.069402"
       id="rect6797"
       style="display:inline;fill:#000000" />
    <rect
       y="894.52802"
       x="175.24304"
       height="9.7936563"
       width="6.8582163"
       id="rect6815"
       style="display:inline;fill:#000000" />
    <rect
       y="987.0141"
       x="282.25266"
       height="5.5109248"
       width="6.5574169"
       id="rect6817-7"
       style="display:inline;fill:#000000" />
    <path
       id="path6727-1-8"
       d="m 286.18049,985.40928 -5.43332,4.89966 5.41865,4.84983 5.28196,-4.86908 z"
       style="display:inline;fill:none;fill-rule:evenodd;stroke:#000000;stroke-width:3.72247958px;stroke-linecap:butt;stroke-linejoin:miter;stroke-opacity:1"
       inkscape:connector-curvature="0" />
    <path
       id="path6727-1-2-3"
       d="m 191.4903,820.14653 -7.45043,7.08145 7.43052,7.00928 7.24285,-7.03719 z"
       style="display:inline;fill:none;fill-rule:evenodd;stroke:#000000;stroke-width:5.24046993px;stroke-linecap:butt;stroke-linejoin:miter;stroke-opacity:1"
       inkscape:connector-curvature="0" />
    <rect
       y="823.1698"
       x="187.98169"
       height="9.7936563"
       width="6.8582163"
       id="rect6815-1"
       style="display:inline;fill:#000000" />
    <rect
       ry="2.1593831"
       y="971.04877"
       x="60.936188"
       height="27.266325"
       width="42.782486"
       id="rect6673"
       style="display:inline;fill:#ffffff" />
    <path
       style="fill:#ffe6d5;fill-opacity:1"
       d="M 98.308899,322.37973 C 75.539181,314.9538 61.731236,296.21882 61.695358,272.70152 c -0.01443,-9.45751 0.608327,-12.22414 4.557119,-20.24528 9.25778,-18.80522 26.61258,-29.7966 47.362083,-29.996 13.6098,-0.13079 23.14454,3.04832 34.30575,11.43835 l 8.55139,6.4282 0,33.32866 0,33.32867 -7.00114,5.13931 c -11.59119,8.50872 -19.37309,11.28671 -32.99886,11.78 -7.59486,0.27495 -14.39757,-0.29573 -18.162801,-1.5237 z"
       id="path4570"
       inkscape:connector-curvature="0"
       transform="translate(0,552.36216)" />
    <path
       style="fill:#ffe6d5;fill-opacity:1"
       d="m 61.362617,443.8869 c -0.403534,-1.05159 -0.544072,-6.99802 -0.312308,-13.21428 l 0.421391,-11.3023 21.071429,-0.39534 21.071431,-0.39533 0,13.60962 0,13.60962 -20.759124,0 c -16.020644,0 -20.926595,-0.43643 -21.492819,-1.91199 z"
       id="path4572"
       inkscape:connector-curvature="0"
       transform="translate(0,552.36216)" />
    <path
       style="fill:#ffe6d5;fill-opacity:1"
       d="M -1.4397681,502.5846 C -1.8131852,501.60246 -1.9537235,387.65603 -1.7520757,249.37032 L -1.385443,-2.058255 251.11456,-2.4193547 l 252.5,-0.3610998 0,253.5753845 0,253.57539 -252.18769,0 c -200.435677,0 -252.32702496,-0.36646 -252.8666381,-1.78572 z M 169.32884,442.40237 c 0,-3.89238 0.83197,-6.94411 2.2034,-8.0823 3.09336,-2.56727 4.67929,-0.37992 5.20642,7.18078 0.33165,4.75704 1.09381,6.53888 2.94733,6.89047 2.10901,0.40004 2.5,-0.63536 2.5,-6.62056 0,-5.16754 0.6171,-7.33157 2.27177,-7.96653 3.7444,-1.43686 4.87108,0.36572 4.87108,7.79326 0,5.32188 0.52723,7.05854 2.14286,7.05854 1.63543,0 2.13767,-1.77598 2.12099,-7.5 -0.0114,-4.125 -0.49418,-8.23224 -1.07143,-9.12718 -0.65086,-1.00908 -6.06932,-1.67213 -14.26385,-1.74548 l -13.21428,-0.11828 0,9.24546 c 0,7.26581 0.45883,9.24547 2.14286,9.24547 1.57842,0 2.14285,-1.64723 2.14285,-6.25366 z m 47.14286,3.99729 c 0,-1.77061 -0.93521,-2.05096 -4.34423,-1.3022 -2.65597,0.58334 -5.15424,0.28189 -6.42857,-0.7757 -3.67547,-3.05039 -2.25864,-4.23716 5.05851,-4.23716 7.7702,0 8.74859,-1.35748 4.919,-6.82498 -1.55042,-2.21353 -3.68257,-3.17502 -7.04082,-3.17502 -6.34353,0 -9.30675,3.19383 -9.30675,10.03106 0,6.61093 2.37637,8.43471 11.07143,8.49693 4.59853,0.0329 6.07143,-0.50394 6.07143,-2.21293 z m 17.14286,0.98267 c 0,-0.70054 -1.60715,-1.67707 -3.57143,-2.17007 -3.06133,-0.76834 -3.57143,-1.70866 -3.57143,-6.58344 0,-5.11383 0.35999,-5.68707 3.57143,-5.68707 1.96428,0 3.57143,-0.64286 3.57143,-1.42858 0,-0.78571 -1.60715,-1.42857 -3.57143,-1.42857 -2.61904,0 -3.57143,-0.7619 -3.57143,-2.85714 0,-3.97984 -4.24076,-3.64101 -4.47007,0.35714 -0.43179,7.52853 0.58034,17.6317 1.93203,19.28572 1.65877,2.02978 9.6809,2.45407 9.6809,0.51201 z m 20,-5.43668 c 0,-9.59299 -1.78522,-11.86105 -9.33597,-11.86105 -4.75279,0 -6.37832,0.55305 -6.37832,2.17007 0,1.58795 0.93629,1.93509 3.49023,1.29409 6.31876,-1.58591 7.74904,1.29184 1.50977,3.03767 -4.20716,1.17722 -5.83827,2.44196 -6.1844,4.7953 -0.89887,6.11153 0.57872,7.27473 8.99453,7.08072 l 7.90416,-0.18223 0,-6.33457 z m 10,-6.14676 c 0,-10.47619 -0.39683,-12.85714 -2.14286,-12.85714 -1.74603,0 -2.14286,2.38095 -2.14286,12.85714 0,10.47618 0.39683,12.85714 2.14286,12.85714 1.74603,0 2.14286,-2.38096 2.14286,-12.85714 z m 59.5341,5.56303 c -0.47515,-4.01176 -1.60769,-8.19033 -2.51677,-9.28572 -2.38538,-2.8742 -14.16019,-2.6946 -14.16019,0.21599 0,1.73503 1.0353,2.01337 4.8364,1.30028 2.67289,-0.50144 5.22351,-0.28094 5.70179,0.4929 0.47595,0.77013 -1.37118,1.81982 -4.10476,2.33263 -5.91662,1.10997 -8.69314,5.15857 -6.43343,9.38089 1.24984,2.33536 2.99117,2.85714 9.53496,2.85714 l 8.00587,0 -0.86387,-7.29411 z m 10.4659,1.04045 c 0,-6.3127 2.74588,-10.58091 5.65171,-8.78501 0.82013,0.50687 1.49114,-0.0807 1.49114,-1.30559 0,-1.64598 -1.49115,-2.22717 -5.71428,-2.22717 l -5.71429,0 0,9.28572 c 0,7.30158 0.45787,9.28571 2.14286,9.28571 1.57843,0 2.14286,-1.64723 2.14286,-6.25366 z m 21.42857,4.9917 c 0,-0.69407 -1.28572,-1.59817 -2.85714,-2.00911 -2.27016,-0.59366 -2.85715,-1.94859 -2.85715,-6.59519 0,-4.89564 0.4653,-5.84802 2.85715,-5.84802 1.57142,0 2.85714,-0.64286 2.85714,-1.42858 0,-0.78571 -1.28572,-1.42857 -2.85714,-1.42857 -1.90476,0 -2.85715,-0.95238 -2.85715,-2.85714 0,-1.5873 -0.95238,-2.85714 -2.14285,-2.85714 -1.17858,0 -2.14286,1.23214 -2.14286,2.7381 0,1.50594 -0.80357,3.11308 -1.78572,3.57143 -1.42857,0.66665 -1.42857,1 0,1.66665 1.06099,0.49513 1.78572,3.5873 1.78572,7.61906 0,3.73214 0.42857,7.21429 0.95238,7.73809 1.41495,1.41494 9.04762,1.15378 9.04762,-0.30958 z m 17.0859,-0.81227 c 2.84621,-3.42948 1.08074,-7.09981 -4.24616,-8.82753 -5.69667,-1.84764 -5.46994,-4.20097 0.37454,-3.8876 2.51205,0.13472 3.92858,-0.50918 3.92858,-1.78571 0,-2.7358 -10.5182,-2.67174 -12.80025,0.078 -2.61148,3.14664 -0.50888,7.3806 4.37019,8.80016 5.62823,1.63751 4.8068,4.21878 -1.2128,3.81111 -3.27522,-0.2218 -4.64286,0.30422 -4.64286,1.78572 0,2.87221 11.84863,2.89378 14.22876,0.0258 z m -80.91876,-4.79575 3.84454,-4.01285 -4.15928,-3.98485 -4.1593,-3.98486 -4.41797,3.26636 c -2.4299,1.7965 -4.41799,3.92488 -4.41799,4.72974 0,1.40836 7.01169,7.84253 8.6613,7.94793 0.44229,0.0283 2.5342,-1.75442 4.6487,-3.96147 z m -140.45286,-60.55185 0,-57.42183 3.60098,-3.7586 3.60095,-3.7586 -2.95908,-2.67794 c -2.83869,-2.56897 -3.11602,-2.57561 -6.81526,-0.16296 -17.77737,11.59443 -41.55805,13.95775 -57.772221,5.7414 -9.277155,-4.70108 -19.560209,-15.08494 -23.877005,-24.11107 -2.581491,-5.39773 -3.569143,-10.31058 -4.04247,-20.10841 -0.567775,-11.75287 -0.275661,-13.70686 3.123173,-20.8914 5.282692,-11.1667 13.45873,-19.8483 23.96818,-25.45024 7.61966,-4.06158 10.865623,-4.90969 20.784223,-5.43055 14.46511,-0.7596 23.12565,1.26235 32.86656,7.67327 8.68945,5.71892 9.14113,5.80026 12.37346,2.22858 2.32566,-2.56982 2.18871,-2.89943 -2.99287,-7.20356 -34.9078,-28.99646 -88.826549,-15.15459 -105.327747,27.03946 -6.08698,15.56458 -3.895719,37.30217 5.308084,52.65684 15.180153,25.32501 50.266323,38.04651 77.803903,28.21006 l 6.07143,-2.16873 -0.084,44.57948 c -0.057,30.22865 -0.54399,43.88967 -1.5129,42.43663 -0.78588,-1.17857 -10.43396,-18.05357 -21.44016,-37.5 l -20.011267,-35.35714 -9.190117,0 -9.190117,0 0,36.42857 0,36.42857 8.536887,0 8.536887,0 0.391684,-23.50263 0.391684,-23.50261 18.994969,33.50261 18.99497,33.50263 9.9336,0 9.9336,0 0,-57.42183 z m 109.17315,35.85062 c 8.44477,-2.34465 13.684,-8.3066 13.684,-15.57165 0,-8.70255 -5.00442,-13.11597 -18.57917,-16.38505 -13.7969,-3.32257 -15.70655,-4.38497 -15.70655,-8.7381 0,-5.5984 8.28759,-8.54692 18.57143,-6.60727 4.32143,0.81507 8.98214,1.92807 10.35714,2.47331 2.09653,0.83137 2.5,0.1761 2.5,-4.06019 0,-4.99551 -0.0906,-5.07035 -8.15681,-6.74491 -13.95103,-2.89621 -28.22547,0.44531 -31.99564,7.48994 -0.91615,1.71185 -1.66573,5.62077 -1.66573,8.68652 0,8.14661 4.53757,11.98211 18.36358,15.52234 12.8326,3.28586 14.88318,4.53656 14.88318,9.0777 0,8.64984 -15.21922,9.89213 -32.5,2.65283 -1.25595,-0.52613 -1.78572,0.95021 -1.78572,4.9763 l 0,5.72437 7.5,1.36783 c 10.47126,1.90971 17.99173,1.95141 24.53029,0.136 l 0,3e-5 z m 60.04108,-2.06205 c 7.24033,-3.43575 10.31903,-10.38018 8.01347,-18.07545 -1.91507,-6.39195 -6.1148,-8.96896 -20.77717,-12.74917 -11.37728,-2.93326 -14.67255,-5.87022 -11.66634,-10.39782 3.57166,-5.37921 16.72487,-6.0855 28.4301,-1.52658 2.0497,0.7983 2.5,0.18325 2.5,-3.41462 0,-5.40553 -2.39981,-6.82908 -13.66,-8.10304 -15.47223,-1.75047 -26.80559,3.45691 -28.62444,13.15223 -1.89353,10.09338 3.54438,16.00758 17.49573,19.02808 10.03827,2.17332 14.58572,4.25816 15.48788,7.10059 2.93439,9.24541 -13.14954,12.82147 -28.61096,6.36128 l -4.94535,-2.0663 0,5.57892 c 0,5.49288 0.10471,5.60201 6.78571,7.07716 9.28786,2.0507 23.03342,1.13718 29.57137,-1.96528 z m 61.16139,-0.44314 c 7.65781,-4.73278 11.66403,-13.39796 11.67694,-25.25638 0.0183,-16.80218 -8.06436,-26.78058 -23.35378,-28.83132 -11.26745,-1.51128 -24.19115,5.29357 -28.17873,14.83723 -2.51769,6.02564 -2.50717,22.11321 0.0183,28.01561 2.4692,5.7709 9.20359,12.18362 14.61069,13.9128 6.44331,2.06058 19.86483,0.6358 25.22658,-2.67794 z m -196.0899,-25.20931 0,-27.85715 -5.71429,0 -5.71428,0 0,27.85715 0,27.85714 5.71428,0 5.71429,0 0,-27.85714 z m 28.57143,-10.71429 0,-38.57143 -5,0 -5,0 0,38.57143 0,38.57143 5,0 5,0 0,-38.57143 z m 204.28571,21.64174 c 0,-18.68942 1.37686,-24.62892 6.4852,-27.97605 5.10287,-3.34353 15.30733,-2.9236 18.65053,0.76748 2.3547,2.59973 2.78759,5.77607 3.2125,23.57143 l 0.4911,20.56683 4.86604,0 4.86606,0 0,-20.76017 c 0,-28.83252 -2.64636,-34.09126 -18.0336,-35.83572 -5.71006,-0.64734 -8.19016,-0.131 -13.75211,2.86286 -6.57573,3.53962 -6.78572,3.5628 -6.78572,0.74946 0,-2.48123 -0.77861,-2.83874 -5.35714,-2.45982 l -5.35714,0.44339 -0.39138,25.66626 c -0.21524,14.11644 -0.0747,26.49144 0.31232,27.5 0.38894,1.01358 2.96001,1.83374 5.74851,1.83374 l 5.04483,0 0,-16.92969 z m -232.42928,-48.49127 5.29341,-5.42094 -5.62171,-5.48946 -5.62172,-5.48945 -5.81036,4.60187 c -3.19568,2.53104 -5.81034,5.28331 -5.81034,6.11615 0,1.44459 9.86266,10.91906 11.49579,11.04332 0.42983,0.0327 3.16354,-2.37996 6.07493,-5.36149 z m 125.84221,-7.07904 c -0.3665,-4.51786 -0.92483,-10.31797 -1.24074,-12.88916 -0.65466,-5.32834 -1.58525,-5.63164 13.30113,4.33516 5.76031,3.85667 10.60775,6.79656 10.77207,6.53307 0.16431,-0.26348 2.07815,-2.89611 4.25297,-5.85027 l 3.9542,-5.3712 -13.20136,-6.10939 -13.20136,-6.10938 13.08999,-5.48917 13.08997,-5.48919 -2.22041,-3.74451 c -5.8892,-9.93157 -4.968,-9.87656 -17.49977,-1.04517 -6.25528,4.40821 -11.66835,8.01492 -12.02903,8.01492 -0.3607,0 -0.45295,-1.44642 -0.205,-3.21428 0.24795,-1.76786 0.72764,-7.55357 1.06597,-12.85714 l 0.61514,-9.64286 -7.59987,0 -7.59987,0 0.85111,13.13694 0.8511,13.13693 -11.77463,-8.2507 c -12.95574,-9.07833 -12.00294,-9.11686 -17.83678,0.72136 l -2.22042,3.74451 12.82919,5.37983 c 7.05606,2.9589 12.82919,5.51146 12.82919,5.67234 0,0.1609 -5.625,2.76105 -12.5,5.77812 -6.875,3.01705 -12.70888,5.63118 -12.96416,5.80918 -0.59874,0.41745 7.05874,12.01435 7.93313,12.01435 0.36338,0 5.83945,-3.56738 12.16903,-7.92749 l 11.50831,-7.92749 -0.83753,12.92749 -0.83754,12.92749 7.66116,0 7.66115,0 -0.66634,-8.21429 z m -113.11253,-64.2219 5.42087,-5.29334 -5.29341,-5.42095 c -2.91139,-2.98152 -5.93943,-5.42095 -6.72899,-5.42095 -0.78954,0 -3.87494,2.382 -6.85641,5.29333 l -5.42087,5.29334 5.29341,5.42094 c 2.91139,2.98153 5.93943,5.42096 6.72899,5.42096 0.78954,0 3.87494,-2.382 6.85641,-5.29333 z"
       id="path4574"
       inkscape:connector-curvature="0"
       transform="translate(0,552.36216)" />
  </g>
</svg>
