<?xml version="1.0" encoding="UTF-8" standalone="no"?>
<!-- Created with Inkscape (http://www.inkscape.org/) -->

<svg
   xmlns:dc="http://purl.org/dc/elements/1.1/"
   xmlns:cc="http://creativecommons.org/ns#"
   xmlns:rdf="http://www.w3.org/1999/02/22-rdf-syntax-ns#"
   xmlns:svg="http://www.w3.org/2000/svg"
   xmlns="http://www.w3.org/2000/svg"
   xmlns:sodipodi="http://sodipodi.sourceforge.net/DTD/sodipodi-0.dtd"
   xmlns:inkscape="http://www.inkscape.org/namespaces/inkscape"
   width="1500"
   height="1500"
   viewBox="0 0 1500 1500"
   id="svg4235"
   version="1.1"
   inkscape:version="0.91 r13725"
   sodipodi:docname="Logo101.svg">
  <defs
     id="defs4237" />
  <sodipodi:namedview
     id="base"
     pagecolor="#ffffff"
     bordercolor="#666666"
     borderopacity="1.0"
     inkscape:pageopacity="0.0"
     inkscape:pageshadow="2"
     inkscape:zoom="0.175"
     inkscape:cx="850.23568"
     inkscape:cy="283.58279"
     inkscape:document-units="px"
     inkscape:current-layer="layer1"
     showgrid="false"
     units="px"
     inkscape:window-width="1315"
     inkscape:window-height="744"
     inkscape:window-x="51"
     inkscape:window-y="24"
     inkscape:window-maximized="1" />
  <metadata
     id="metadata4240">
    <rdf:RDF>
      <cc:Work
         rdf:about="">
        <dc:format>image/svg+xml</dc:format>
        <dc:type
           rdf:resource="http://purl.org/dc/dcmitype/StillImage" />
        <dc:title></dc:title>
      </cc:Work>
    </rdf:RDF>
  </metadata>
  <g
     inkscape:groupmode="layer"
     id="layer2"
     inkscape:label="Layer 2"
     transform="translate(0,1000)"
     sodipodi:insensitive="true">
    <rect
       style="fill:#ffe6d5;fill-opacity:1"
       id="rect4544"
       width="2000.7401"
       height="2006.3918"
       x="-1.4285715"
       y="-1502.1061"
       ry="8.5430803" />
  </g>
  <g
     inkscape:label="Layer 1"
     inkscape:groupmode="layer"
     id="layer1"
     transform="translate(0,447.63784)"
     style="display:inline">
    <path
       style="display:inline"
       d="M 159.92593,859.24016 A 84.292929,81.036204 0 0 1 67.365429,879.18822 84.292929,81.036204 0 0 1 14.109874,803.72358 84.292929,81.036204 0 0 1 67.601035,728.4131 84.292929,81.036204 0 0 1 160.09877,748.62843 l -61.696074,55.21688 z"
       id="path6639"
       inkscape:connector-curvature="0" />
    <path
       d="m 159.9007,844.32641 a 69.55558,67.307393 0 0 1 -77.167951,22.97785 69.55558,67.307393 0 0 1 -47.625282,-63.08908 69.55558,67.307393 0 0 1 46.088093,-64.14923 69.55558,67.307393 0 0 1 77.70198,21.2258"
       id="path6641"
       style="display:inline;fill:#ffffff"
       inkscape:connector-curvature="0" />
    <text
       transform="scale(1.0343177,0.96682093)"
       id="text6653"
       y="841.30707"
       x="35.801197"
       style="font-style:normal;font-variant:normal;font-weight:normal;font-stretch:normal;font-size:168.35466003px;line-height:125%;font-family:'Gill Sans MT';-inkscape-font-specification:'Gill Sans MT';letter-spacing:0px;word-spacing:0px;display:inline;fill:#000000;fill-opacity:1;stroke:none;stroke-width:1px;stroke-linecap:butt;stroke-linejoin:miter;stroke-opacity:1"
       xml:space="preserve"
       sodipodi:linespacing="125%"><tspan
         y="841.30707"
         x="35.801197"
         id="tspan6655" /><tspan
         id="tspan6665"
         y="1051.7504"
         x="35.801197">N</tspan></text>
    <text
       transform="scale(1.0343177,0.96682093)"
       id="text6667"
       y="1022.108"
       x="121.52092"
       style="font-style:normal;font-variant:normal;font-weight:normal;font-stretch:normal;font-size:132.27864075px;line-height:125%;font-family:'Gill Sans MT';-inkscape-font-specification:'Gill Sans MT';letter-spacing:0px;word-spacing:0px;display:inline;fill:#000000;fill-opacity:1;stroke:none;stroke-width:1px;stroke-linecap:butt;stroke-linejoin:miter;stroke-opacity:1"
       xml:space="preserve"
       sodipodi:linespacing="125%"><tspan
         y="1022.108"
         x="121.52092"
         id="tspan6669"> ilsson</tspan></text>
    <rect
       ry="0"
       y="866.65234"
       x="133.99825"
       height="51.372807"
       width="16.223637"
       id="rect6675"
       style="display:inline;fill:#000000" />
    <rect
       ry="0.30083597"
       y="870.47235"
       x="133.40842"
       height="49.326393"
       width="12.124541"
       id="rect6677"
       style="display:inline;fill:#000000" />
    <text
       transform="scale(1.0343177,0.96682093)"
       id="text6681"
       y="990.60449"
       x="288.11176"
       style="font-style:normal;font-variant:normal;font-weight:bold;font-stretch:normal;font-size:192.4052887px;line-height:125%;font-family:Garamond;-inkscape-font-specification:'Garamond Bold';letter-spacing:0px;word-spacing:0px;display:inline;fill:#000000;fill-opacity:1;stroke:none;stroke-width:1px;stroke-linecap:butt;stroke-linejoin:miter;stroke-opacity:1"
       xml:space="preserve"
       sodipodi:linespacing="125%"><tspan
         y="990.60449"
         x="288.11176"
         id="tspan6683">*</tspan></text>
    <text
       transform="scale(1.0343177,0.96682093)"
       id="text6707"
       y="1064.6355"
       x="161.22891"
       style="font-style:normal;font-variant:normal;font-weight:normal;font-stretch:normal;font-size:43.41835022px;line-height:125%;font-family:'Copperplate Gothic Light';-inkscape-font-specification:'Copperplate Gothic Light, ';letter-spacing:1.35561728px;word-spacing:0px;display:inline;fill:#000000;fill-opacity:1;stroke:none;stroke-width:1px;stroke-linecap:butt;stroke-linejoin:miter;stroke-opacity:1"
       xml:space="preserve"
       sodipodi:linespacing="125%"><tspan
         y="1064.6355"
         x="161.22891"
         id="tspan6709">metal   arts</tspan></text>
    <path
       id="path6727-1-2"
       d="m 188.57172,888.60316 -9.62739,9.15053 9.60163,9.0573 9.35908,-9.09334 z"
       style="display:inline;fill:none;fill-rule:evenodd;stroke:#000000;stroke-width:6.77165604px;stroke-linecap:butt;stroke-linejoin:miter;stroke-opacity:1"
       inkscape:connector-curvature="0" />
    <rect
       ry="0"
       y="904.79346"
       x="61.420292"
       height="86.710381"
       width="14.303714"
       id="rect6797"
       style="display:inline;fill:#000000" />
    <rect
       y="892.21436"
       x="183.36911"
       height="12.655215"
       width="8.8620834"
       id="rect6815"
       style="display:inline;fill:#000000" />
    <rect
       y="1011.7235"
       x="321.64529"
       height="7.1211343"
       width="8.4733953"
       id="rect6817-7"
       style="display:inline;fill:#000000" />
    <path
       id="path6727-1-8"
       d="m 326.7208,1009.6498 -7.02085,6.3312 7.0019,6.2669 6.82527,-6.2918 z"
       style="display:inline;fill:none;fill-rule:evenodd;stroke:#000000;stroke-width:4.81013203px;stroke-linecap:butt;stroke-linejoin:miter;stroke-opacity:1"
       inkscape:connector-curvature="0" />
    <path
       id="path6727-1-2-3"
       d="m 204.36357,796.09972 -9.62734,9.15054 9.60161,9.05729 9.35909,-9.09336 z"
       style="display:inline;fill:none;fill-rule:evenodd;stroke:#000000;stroke-width:6.77165604px;stroke-linecap:butt;stroke-linejoin:miter;stroke-opacity:1"
       inkscape:connector-curvature="0" />
    <rect
       y="800.00635"
       x="199.82979"
       height="12.655215"
       width="8.8620834"
       id="rect6815-1"
       style="display:inline;fill:#000000" />
    <rect
       ry="2.7903223"
       y="991.09332"
       x="35.663506"
       height="35.233135"
       width="55.282887"
       id="rect6673"
       style="display:inline;fill:#ffffff" />
    <path
       style="fill:#ffe6d5;fill-opacity:1"
       d="m 83.955955,866.64702 c -29.422683,-9.59568 -47.265102,-33.80474 -47.311463,-64.19344 -0.01865,-12.22085 0.786071,-15.79585 5.888641,-26.16064 11.962764,-24.29983 34.388377,-38.50272 61.200577,-38.76038 17.58638,-0.16901 29.90702,3.93899 44.32937,14.78046 l 11.04997,8.30643 0,43.06679 0,43.06681 -9.04676,6.64094 c -14.97797,10.99483 -25.03362,14.58451 -42.64063,15.22193 -9.813969,0.35529 -18.604329,-0.38213 -23.469705,-1.9689 z"
       id="path4570"
       inkscape:connector-curvature="0" />
    <path
       style="fill:#ffe6d5;fill-opacity:1"
       d="m 36.214529,1023.6568 c -0.52144,-1.3589 -0.703042,-9.0428 -0.40356,-17.0753 l 0.544516,-14.6047 27.228183,-0.51085 27.228187,-0.51084 0,17.58619 0,17.5861 -26.824628,0 c -20.701636,0 -27.041032,-0.5639 -27.772698,-2.4706 z"
       id="path4572"
       inkscape:connector-curvature="0" />
    <path
       style="fill:#000000;fill-opacity:1"
       d="M -2.0985343,1047.0451 C -3.568519,1043.1789 -4.121758,594.61986 -3.3279567,50.247404 l 1.443278,-989.767874 993.9857187,-1.42149 993.98586,-1.4215 0,998.219076 0,998.219084 -992.75644,0 c -789.03047,0 -993.30476499,-1.4426 -995.4289943,-7.0296 z M 670.14526,810.13306 c 0,-15.32274 3.27512,-27.33605 8.67385,-31.81657 12.17725,-10.10631 18.42039,-1.49571 20.49547,28.26771 1.30557,18.72634 4.30589,25.74071 11.60239,27.12477 8.3023,1.57478 9.84145,-2.50103 9.84145,-26.06234 0,-20.34235 2.42926,-28.86134 8.94301,-31.36094 14.74011,-5.65615 19.17537,1.43988 19.17537,30.67892 0,20.94995 2.07549,27.7865 8.43553,27.7865 6.438,0 8.41511,-6.99136 8.34945,-29.52435 -0.045,-16.23825 -1.94537,-32.40684 -4.21776,-35.92973 -2.56216,-3.97256 -23.89235,-6.58265 -56.15074,-6.87145 l -52.01904,-0.46557 0,36.39556 c 0,28.60238 1.80621,36.39541 8.43554,36.39541 6.21354,0 8.43548,-6.48444 8.43548,-24.61792 z m 185.58152,15.73557 c 0,-6.97004 -3.68153,-8.07369 -17.10141,-5.12609 -10.45542,2.29633 -20.29005,1.10959 -25.30656,-3.05356 -14.46877,-12.00815 -8.8913,-16.67991 19.91321,-16.67991 30.58799,0 34.4395,-5.34384 19.36401,-26.86711 -6.10332,-8.71385 -14.49671,-12.49879 -27.71672,-12.49879 -24.97179,0 -36.63674,12.57283 -36.63674,39.48814 0,26.02447 9.35477,33.20385 43.58354,33.44872 18.10248,0.12921 23.90067,-1.98376 23.90067,-8.7114 z m 67.48416,3.86829 c 0,-2.75766 -6.32664,-6.60191 -14.05917,-8.5425 -12.05119,-3.02476 -14.05923,-6.72621 -14.05923,-25.91619 0,-20.13108 1.41713,-22.38762 14.05923,-22.38762 7.73253,0 14.05917,-2.53076 14.05917,-5.62372 0,-3.09298 -6.32664,-5.62372 -14.05917,-5.62372 -10.31008,0 -14.05923,-2.9993 -14.05923,-11.24731 0,-15.66697 -16.69408,-14.33318 -17.59679,1.4059 -1.69976,29.63664 2.28456,69.40855 7.60561,75.91961 6.52986,7.99048 38.10958,9.66089 38.10958,2.01555 z m 78.73166,-21.40181 c 0,-37.76359 -7.02773,-46.69194 -36.75186,-46.69194 -18.70973,0 -25.10875,2.17707 -25.10875,8.54276 0,6.25095 3.68578,7.61756 13.73956,5.09418 24.87429,-6.24293 30.50467,5.08553 5.94332,11.95801 -16.56182,4.63429 -22.9828,9.61295 -24.34537,18.87714 -3.53846,24.05855 2.27818,28.63753 35.40767,27.87372 l 31.11543,-0.71729 0,-24.93658 z m 39.3657,-24.1972 c 0,-41.24034 -1.5622,-50.61295 -8.4356,-50.61295 -6.8733,0 -8.4355,9.37261 -8.4355,50.61295 0,41.24034 1.5622,50.6132 8.4355,50.6132 6.8734,0 8.4356,-9.37286 8.4356,-50.6132 z m 234.3606,21.89943 c -1.8704,-15.79256 -6.3289,-32.24195 -9.9075,-36.5541 -9.3902,-11.31437 -55.7427,-10.60742 -55.7427,0.85038 0,6.82998 4.0755,7.92588 19.0389,5.11861 10.522,-1.97394 20.5627,-1.10599 22.4455,1.94022 1.8736,3.03184 -5.3977,7.16387 -16.1587,9.18278 -23.2912,4.36926 -34.2212,20.30695 -25.3257,36.92845 4.9201,9.19338 11.775,11.24743 37.5351,11.24743 l 31.5158,0 -3.4007,-28.71377 z m 41.1997,4.09572 c 0,-24.8504 10.8095,-41.65256 22.2485,-34.58288 3.2285,1.99525 5.87,-0.31763 5.87,-5.13941 0,-6.47966 -5.8701,-8.7676 -22.4947,-8.7676 l -22.4948,0 0,36.5541 c 0,28.74311 1.8025,36.55384 8.4356,36.55384 6.2136,0 8.4354,-6.48457 8.4354,-24.61805 z m 84.3553,19.65025 c 0,-2.73219 -5.0613,-6.2914 -11.2473,-7.90908 -8.9367,-2.33691 -11.2474,-7.67067 -11.2474,-25.96245 0,-19.27203 1.8316,-23.02117 11.2474,-23.02117 6.186,0 11.2473,-2.53076 11.2473,-5.62372 0,-3.09298 -5.0613,-5.62372 -11.2473,-5.62372 -7.4982,0 -11.2474,-3.74915 -11.2474,-11.24731 0,-6.24862 -3.7492,-11.24743 -8.4356,-11.24743 -4.6396,0 -8.4355,4.8506 -8.4355,10.77889 0,5.92815 -3.1632,12.25481 -7.0296,14.05909 -5.6237,2.6243 -5.6237,3.93665 0,6.56094 4.1767,1.949 7.0296,14.12165 7.0296,29.99304 0,14.69176 1.6871,28.39951 3.7492,30.46171 5.5701,5.56997 35.6166,4.54177 35.6166,-1.21879 z m 67.2599,-3.19751 c 11.2044,-13.50049 4.2545,-27.94905 -16.7153,-34.75035 -22.4253,-7.27331 -21.5329,-16.53751 1.4745,-15.30386 9.8889,0.53044 15.4651,-2.00444 15.4651,-7.02949 0,-10.76984 -41.4057,-10.5176 -50.3891,0.30703 -10.2804,12.38688 -2.0032,29.05426 17.2035,34.64257 22.1559,6.44607 18.9224,16.60755 -4.7743,15.00253 -12.8931,-0.87313 -18.277,1.1976 -18.277,7.02975 0,11.30661 46.6431,11.39151 56.0126,0.10207 z m -318.5429,-18.87895 15.1343,-15.79684 -16.3733,-15.68661 -16.3734,-15.68687 -17.3916,12.85841 c -9.5656,7.072 -17.3918,15.45053 -17.3918,18.61897 0,5.54399 27.602,30.87275 34.0958,31.28767 1.7411,0.11112 9.9761,-6.90647 18.3,-15.59473 z m -552.9035,-238.36704 0,-226.04528 14.17553,-14.79603 14.17541,-14.79604 -11.64864,-10.54203 c -11.17472,-10.11302 -12.26645,-10.13912 -26.82879,-0.64157 -69.98199,45.6423 -163.59647,54.9459 -227.42481,22.60148 -36.52024,-18.50616 -77.00026,-59.383 -93.99366,-94.91512 -10.16225,-21.24843 -14.05021,-40.5883 -15.9135,-79.15822 -2.2351,-46.26603 -1.08516,-53.95802 12.29462,-82.240719 20.79572,-43.958323 52.98131,-78.1342892 94.35257,-100.186718 29.9954,-15.988722 42.77338,-19.32734 81.8187,-21.377779 56.94302,-2.990245 91.03591,4.969356 129.38176,30.206374 34.20668,22.5129631 35.98475,22.83316711 48.70906,8.773031 C 625.2908,-23.895068 624.75168,-25.19268 604.354,-42.136197 466.93673,-156.28303 254.68143,-101.79341 189.7232,64.306764 165.76134,125.57791 174.38739,211.14963 210.61887,271.59442 270.37672,371.2883 408.49614,421.36744 516.89994,382.64558 l 23.90065,-8.53747 -0.33067,175.49061 c -0.22439,118.99731 -2.14144,172.77508 -5.95565,167.05509 -3.09367,-4.63959 -41.07408,-71.06927 -84.40082,-147.62167 l -78.7759,-139.18602 -36.17762,0 -36.17761,0 0,143.40384 0,143.40385 33.60611,0 33.60611,0 1.5419,-92.51993 1.54189,-92.51993 74.77518,131.8857 74.77517,131.88557 39.10437,0 39.10438,0 0,-226.04541 z m 429.7685,141.12869 c 33.2435,-9.22981 53.8681,-32.69951 53.8681,-61.29892 0,-34.25815 -19.7003,-51.63197 -73.1383,-64.5011 -54.31256,-13.07949 -61.83004,-17.26178 -61.83004,-34.39822 0,-22.03847 32.62475,-33.64552 73.10784,-26.00987 17.0116,3.20837 35.3589,7.5899 40.7717,9.73622 8.2532,3.27298 9.8415,0.69326 9.8415,-15.98316 0,-19.66512 -0.3567,-19.95986 -32.1099,-26.55195 -54.91935,-11.40108 -111.1118,1.75298 -125.95336,29.48483 -3.6065,6.73886 -6.55727,22.12659 -6.55727,34.19521 0,32.0697 17.86248,47.1685 72.28963,61.10485 50.5165,12.93489 58.5888,17.85851 58.5888,35.73498 0,34.05076 -59.91165,38.94116 -127.93877,10.44305 -4.94412,-2.07111 -7.0296,3.74075 -7.0296,19.58978 l 0,22.53442 29.5243,5.38441 c 41.22094,7.51793 70.82587,7.6819 96.56537,0.53547 l 0,0 z m 236.3563,-8.11737 c 28.5023,-13.52504 40.6218,-40.86238 31.5457,-71.15545 -7.5388,-25.16247 -24.0714,-35.3069 -81.7909,-50.18809 -44.7875,-11.54696 -57.7596,-23.1084 -45.9255,-40.93177 14.0602,-21.17567 65.8388,-23.95606 111.9173,-6.00943 8.0688,3.14247 9.8415,0.72143 9.8415,-13.44195 0,-21.27931 -9.4471,-26.88326 -53.7736,-31.89824 -60.9077,-6.89082 -105.5223,13.60827 -112.6824,51.77476 -7.454,39.73339 13.9527,63.01508 68.8733,74.9055 39.5164,8.55543 57.4178,16.76261 60.9692,27.95217 11.5514,36.39516 -51.7641,50.4726 -112.6293,25.0415 l -19.4677,-8.13418 0,21.96199 c 0,21.62316 0.4122,22.05255 26.7124,27.85976 36.5624,8.07267 90.6729,4.47651 116.41,-7.73657 z m 240.7667,-1.74445 c 30.1455,-18.63085 45.9163,-52.74221 45.9671,-99.42369 0.072,-66.14319 -31.746,-105.42368 -91.9339,-113.4966 -44.3554,-5.94935 -95.2305,20.83841 -110.9277,58.40779 -9.9111,23.72051 -9.8698,87.05036 0.072,110.28566 9.7202,22.71751 36.2306,47.96177 57.5161,54.76887 25.3647,8.11157 78.1995,2.50284 99.3063,-10.54203 z m -771.92314,-99.23838 0,-109.66193 -22.49471,0 -22.4947,0 0,109.66193 0,109.66179 22.4947,0 22.49471,0 0,-109.66179 z m 112.47366,-42.17757 0,-151.83948 -19.68288,0 -19.6829,0 0,151.83948 0,151.83936 19.6829,0 19.68288,0 0,-151.83936 z m 804.18648,85.1944 c 0,-73.57236 5.4201,-96.95366 25.5296,-110.13008 20.0877,-13.16193 60.2584,-11.50871 73.4191,3.02139 9.2695,10.23397 10.9737,22.73793 12.6463,92.79077 l 1.9332,80.96288 19.1557,0 19.1555,0 0,-81.72411 c 0,-113.50126 -10.4176,-134.20284 -70.9907,-141.0699 -22.4781,-2.54845 -32.2411,-0.51571 -54.1362,11.26979 -25.8858,13.93402 -26.7125,14.02525 -26.7125,2.95032 0,-9.7675 -3.065,-11.17495 -21.0887,-9.68325 l -21.0889,1.74549 -1.5407,101.0371 c -0.8473,55.57055 -0.2941,104.28566 1.2295,108.2559 1.5311,3.99013 11.6523,7.21866 22.6294,7.21866 l 19.8594,0 0,-66.64496 z m -914.97581,-190.8897 20.83791,-21.33992 -22.1303,-21.60972 -22.13033,-21.6096 -22.87292,18.11565 c -12.58007,9.96353 -22.87286,20.79811 -22.87286,24.07651 0,5.68678 38.82512,42.98376 45.25406,43.47298 1.69206,0.12922 12.45353,-9.36872 23.91444,-21.1059 z M 1229.0776,425.6283 c -1.4427,-17.78499 -3.6406,-40.61764 -4.8842,-50.73919 -2.5771,-20.97552 -6.2405,-22.16951 52.3609,17.06563 22.6759,15.18214 41.7582,26.7552 42.4051,25.71796 0.6468,-1.03723 8.1808,-11.40069 16.7422,-23.03009 l 15.566,-21.14403 -51.9681,-24.05014 -51.9683,-24.05015 51.5299,-21.60831 51.5295,-21.60881 -8.7408,-14.74048 c -23.1832,-39.09635 -19.5569,-38.87977 -68.8893,-4.11444 -24.6243,17.35327 -45.9332,31.55154 -47.3531,31.55154 -1.4199,0 -1.783,-5.69415 -0.8069,-12.65333 0.976,-6.95946 2.8643,-29.73525 4.1962,-50.61321 l 2.4215,-37.96 -29.9175,0 -29.9174,0 3.3505,51.71466 3.3504,51.71467 -46.3517,-32.47959 c -51.0014,-35.73757 -47.2506,-35.88915 -70.216,2.8397 l -8.7408,14.74048 50.5031,21.17826 c 27.7768,11.64788 50.5031,21.69618 50.5031,22.32947 0,0.63343 -22.1432,10.86909 -49.2072,22.74608 -27.064,11.87686 -50.0295,22.16756 -51.0344,22.86831 -2.357,1.64327 27.7873,47.29526 31.2294,47.29526 1.4304,0 22.9874,-14.04308 47.9043,-31.20704 l 45.3034,-31.2073 -3.297,50.89012 -3.2971,50.89012 30.1588,0 30.1587,0 -2.6232,-32.33615 z M 783.80145,172.81373 805.14112,151.97609 784.30322,130.6363 c -11.46094,-11.73718 -23.38104,-21.34018 -26.4892,-21.34018 -3.10809,0 -15.25401,9.377 -26.99079,20.83765 l -21.33966,20.83751 20.8379,21.34017 c 11.46092,11.73693 23.38103,21.3398 26.4892,21.3398 3.10807,0 15.25398,-9.37674 26.99078,-20.83752 z"
       id="path4574"
       inkscape:connector-curvature="0" />
    <path
       style="fill:#000000;fill-opacity:1"
       d="m 1404.7477,668.26887 c -25.0755,-15.29081 -36.2058,-41.6186 -33.263,-78.68207 0.959,-12.08097 4.4571,-27.21266 7.7735,-33.62594 19.3956,-37.50679 86.5356,-44.93579 115.6039,-12.79149 11.3008,12.49668 17.398,33.037 17.398,58.61095 0,48.64147 -24.3904,73.37302 -72.3344,73.34581 -17.0475,-0.0104 -27.1911,-1.98692 -35.178,-6.85726 z"
       id="path4576"
       inkscape:connector-curvature="0" />
  </g>
</svg>
